<svg xmlns="http://www.w3.org/2000/svg" xmlns:xlink="http://www.w3.org/1999/xlink" width="50" zoomAndPan="magnify" viewBox="0 0 37.5 37.499999" height="50" preserveAspectRatio="xMidYMid meet" version="1.0"><defs><clipPath id="id1"><path d="M 0 0 L 37.007812 0 L 37.007812 37.007812 L 0 37.007812 Z M 0 0 " clip-rule="nonzero"/></clipPath><clipPath id="id2"><path d="M 2 27 L 35 27 L 35 36.035156 L 2 36.035156 Z M 2 27 " clip-rule="nonzero"/></clipPath><clipPath id="id3"><path d="M 22 11 L 37.007812 11 L 37.007812 34 L 22 34 Z M 22 11 " clip-rule="nonzero"/></clipPath><clipPath id="id4"><path d="M 11 1.535156 L 27 1.535156 L 27 26 L 11 26 Z M 11 1.535156 " clip-rule="nonzero"/></clipPath></defs><g clip-path="url(#id1)"><path fill="#ffffff" d="M 0 0 L 37.5 0 L 37.5 45 L 0 45 Z M 0 0 " fill-opacity="1" fill-rule="nonzero"/><path fill="#ffffff" d="M 0 0 L 37.5 0 L 37.5 37.5 L 0 37.5 Z M 0 0 " fill-opacity="1" fill-rule="nonzero"/><path fill="#ffffff" d="M 0 0 L 37.5 0 L 37.5 37.5 L 0 37.5 Z M 0 0 " fill-opacity="1" fill-rule="nonzero"/></g><g clip-path="url(#id2)"><path fill="#e62129" d="M 17.539062 27.164062 L 18.605469 27.164062 L 18.605469 28.230469 L 17.539062 28.230469 Z M 2.738281 36.035156 C 13.25 33.957031 24.25 33.957031 34.761719 36.035156 C 24.402344 32.089844 13.097656 32.089844 2.738281 36.035156 Z M 18.894531 27.164062 L 19.960938 27.164062 L 19.960938 28.230469 L 18.894531 28.230469 Z M 19.960938 28.515625 L 19.960938 29.585938 L 18.894531 29.585938 L 18.894531 28.515625 Z M 18.605469 29.585938 L 17.539062 29.585938 L 17.539062 28.515625 L 18.605469 28.515625 Z M 18.605469 29.585938 " fill-opacity="1" fill-rule="evenodd"/></g><path fill="#e62129" d="M 18.714844 23.019531 L 7.945312 11.621094 L 6.59375 14.738281 L 1.28125 13.234375 L 2.710938 20.4375 L 0.160156 21.324219 L 7.90625 27.808594 C 9.335938 28.796875 9.492188 30.53125 8.394531 33.015625 C 10.1875 32.496094 11.898438 32.097656 13.519531 31.824219 L 13.519531 26.835938 L 18.710938 23.03125 Z M 18.714844 23.019531 " fill-opacity="1" fill-rule="evenodd"/><g clip-path="url(#id3)"><path fill="#912e31" d="M 22.492188 25.785156 L 23.976562 26.875 L 23.976562 31.867188 C 25.597656 32.136719 27.308594 32.535156 29.097656 33.058594 C 27.996094 30.578125 28.160156 28.839844 29.589844 27.847656 L 37.335938 21.363281 L 34.785156 20.480469 L 36.210938 13.273438 L 30.898438 14.78125 L 29.546875 11.667969 L 24.058594 17.417969 L 22.976562 19.441406 L 22.484375 25.777344 Z M 22.492188 25.785156 " fill-opacity="1" fill-rule="evenodd"/></g><g clip-path="url(#id4)"><path fill="#b5161b" d="M 26.183594 6.101562 L 22.601562 8.734375 L 18.78125 1.527344 L 14.957031 8.734375 L 11.375 6.101562 L 13.523438 17.527344 L 18.710938 23.015625 L 22.480469 25.78125 C 23.710938 19.222656 24.945312 12.660156 26.175781 6.09375 Z M 26.183594 6.101562 " fill-opacity="1" fill-rule="evenodd"/></g><path fill="#000000" d="M 22.492188 25.785156 L 25.429688 15.988281 L 24.0625 17.421875 Z M 22.492188 25.785156 " fill-opacity="0.2314" fill-rule="evenodd"/><path fill="#000000" d="M 18.714844 23.019531 L 13.15625 15.535156 L 13.53125 17.527344 Z M 18.714844 23.019531 " fill-opacity="0.2314" fill-rule="evenodd"/></svg>